<svg width="64" height="64" viewBox="0 0 64 64" fill="none" xmlns="http://www.w3.org/2000/svg">
<g clip-path="url(#clip0_17_52)">
<path d="M0 16.1049V23.1111H10.0053L0 16.1049ZM8.29156 55.1111H23.1111V44.7342L8.29156 55.1111ZM40.8889 44.736V55.1111H55.7067L40.8889 44.736ZM0 40.8889V47.8951L10.0089 40.8889H0ZM55.7102 8.88889H40.8889V19.2658L55.7102 8.88889ZM64 47.8969V40.8889H53.9893L64 47.8969ZM64 23.1111V16.1049L53.9929 23.1111H64ZM23.1111 8.88889H8.29156L23.1111 19.2658V8.88889Z" fill="#00247D"/>
<path d="M44.6933 40.8889L61.9591 52.9796C62.8022 52.1109 63.4083 51.0403 63.719 49.8702L50.8924 40.8889H44.6933ZM23.1111 40.8889H19.3048L2.04083 52.9778C2.96705 53.92 4.15461 54.5938 5.48616 54.9067L23.1111 42.5653V40.8889ZM40.8888 23.1111H44.6951L61.9591 11.0222C61.0169 10.0663 59.8228 9.39738 58.5155 9.09334L40.8888 21.4347V23.1111ZM19.3048 23.1111L2.04083 11.0222C1.19808 11.8915 0.591612 12.9619 0.279053 14.1316L13.1057 23.1111H19.3048Z" fill="#CF1B2B"/>
<path d="M64 37.3333H37.3333V55.1111H40.8889V44.736L55.7067 55.1111H56.8889C57.8334 55.1113 58.7683 54.9228 59.639 54.5568C60.5097 54.1907 61.2985 53.6545 61.9591 52.9796L44.6933 40.8889H50.8924L63.7191 49.8702C63.8844 49.2711 64 48.6507 64 48V47.8969L53.9893 40.8889H64V37.3333ZM0 37.3333V40.8889H10.0089L0 47.8951V48C0 49.9396 0.780444 51.6942 2.04089 52.9778L19.3049 40.8889H23.1111V42.5653L5.48622 54.9049C6.00889 55.0293 6.54933 55.1111 7.11111 55.1111H8.29156L23.1111 44.7342V55.1111H26.6667V37.3333H0ZM64 16C64.0011 14.1369 63.2678 12.3484 61.9591 11.0222L44.6951 23.1111H40.8889V21.4347L58.5156 9.09333C57.983 8.96271 57.4372 8.89411 56.8889 8.88889H55.7102L40.8889 19.2658V8.88889H37.3333V26.6667H64V23.1111H53.9929L64 16.1049V16ZM23.1111 8.88889V19.2658L8.29156 8.88889H7.11111C6.16644 8.88847 5.23123 9.077 4.36049 9.44337C3.48976 9.80973 2.70109 10.3465 2.04089 11.0222L19.3049 23.1111H13.1058L0.279111 14.1316C0.10272 14.739 0.00884162 15.3675 0 16L0 16.1049L10.0053 23.1111H0V26.6667H26.6667V8.88889H23.1111Z" fill="#EEEEEE"/>
<path d="M37.3333 26.6667V8.88889H26.6667V26.6667H0V37.3333H26.6667V55.1111H37.3333V37.3333H64V26.6667H37.3333Z" fill="#CF1B2B"/>
</g>
<defs>
<clipPath id="clip0_17_52">
<rect width="64" height="64" fill="white"/>
</clipPath>
</defs>
</svg>
